# xmcd
#
# Track frame offsets: 
#        150
#        18336
#        35437
#        55795
#        77772
#        93677
#        111444
#        130914
#        149157
#        165121
#        181702
#        202302
#        216670
#        230403
#        245561
#        263252
#        278128
#        294218
#        319789
#        347552
#
# Disc length: 4958 seconds
#
# Revision: 0
# Processed by: cddbd v1.5.2PL0 Copyright (c) Steve Scherf et al.
# Submitted via: ExactAudioCopy v1.2
#
DISCID=27135c14
DTITLE=Charlie Landsborough - My Heart Would Know and Heart And Soul, CD
DTITLE=2
DYEAR=2010
DGENRE=Country
TTITLE0=Blowin' In The Wind
TTITLE1=Half Of The Ghost Of A Chance
TTITLE2=You've Got A Friend
TTITLE3=Not A Day Goes By
TTITLE4=Saviour's Song
TTITLE5=My Most Wonderful Time
TTITLE6=One Day At A Time
TTITLE7=Song Of Bernadette
TTITLE8=I'm A Lucky Man
TTITLE9=I Don't Know
TTITLE10=Who Is This Man
TTITLE11=Someone Is Looking For Someone Like You
TTITLE12=Longer Than
TTITLE13=Put Your Hand In The Hand
TTITLE14=It's About Loving You
TTITLE15=Lord, I Hope This Day Is Good
TTITLE16=Song For The Dragonfly
TTITLE17=Shine Your Light - I Saw The Light
TTITLE18=I Will You Love You All My Life
TTITLE19=The Isle Of Innisfree
EXTD=
EXTT0=
EXTT1=
EXTT2=
EXTT3=
EXTT4=
EXTT5=
EXTT6=
EXTT7=
EXTT8=
EXTT9=
EXTT10=
EXTT11=
EXTT12=
EXTT13=
EXTT14=
EXTT15=
EXTT16=
EXTT17=
EXTT18=
EXTT19=
PLAYORDER=
